<svg xmlns="http://www.w3.org/2000/svg" enable-background="new 0 0 6000 4000" viewBox="0 0 6000 4000"><path fill="#262525" d="M1158.763,2875.738c-9.06,0-13.561-5.617-13.561-16.951v-396.682H412.867
				c-9.058,0-13.561-5.617-13.561-16.951v-372.948l739.114-1542.645c4.501-9.007,11.284-13.561,20.344-13.561h383.116
				c6.783,0,10.172,4.555,10.172,13.561l3.389,1529.084h237.33c11.284,0,16.955,5.667,16.955,16.951v369.559
				c0,11.333-4.559,16.951-13.561,16.951h-240.724v396.682c0,11.333-4.555,16.951-13.561,16.951H1158.763z M799.376,2058.645
				h345.826v-739.114L799.376,2058.645z"/><path fill="#262525" d="M3518.008,2774.428c-128.674,66.138-256.488,96.868-383.368,92.215
				c-126.926-4.629-241.525-38.463-343.824-101.558c-102.32-63.02-181.852-149.845-238.691-260.426l-488.308-957.44
				c-56.814-110.534-80.883-225.267-72.068-344.165c8.77-118.869,48.464-230.76,119.086-335.677
				c70.574-104.893,169.232-189.91,295.881-255.007c128.626-66.114,255.182-96.856,379.573-92.175
				c124.394,4.68,237.446,38.059,339.258,100.09c101.766,62.059,181.102,148.385,237.916,258.919l494.341,954.339
				c56.839,110.582,81.104,225.814,72.842,345.672c-8.282,119.934-46.952,232.548-116.027,337.92
				C3745.495,2622.534,3646.634,2708.315,3518.008,2774.428z M3492.937,2021.084l-494.339-954.34
				c-36.156-70.343-91.754-114.194-166.745-131.58c-75.016-17.313-154.716-4.342-239.147,39.055
				c-86.459,44.44-144.43,102.232-173.967,173.284c-29.558,71.123-26.212,141.832,9.944,212.175l491.325,955.89
				c38.24,74.397,94.566,119.781,169.072,136.105c74.485,16.396,154.93,2.327,241.389-42.113
				c84.431-43.397,142.176-100.358,173.233-171.001C3534.732,2167.989,3531.177,2095.481,3492.937,2021.084z"/><path fill="#262525" d="M4949.732,2875.738c-9.058,0-13.562-5.617-13.562-16.951v-396.682h-732.333
				c-9.06,0-13.562-5.617-13.562-16.951v-372.948L4929.39,529.561c4.501-9.007,11.284-13.561,20.342-13.561h383.118
				c6.781,0,10.172,4.555,10.172,13.561l3.39,1529.084h237.33c11.284,0,16.953,5.667,16.953,16.951v369.559
				c0,11.333-4.557,16.951-13.562,16.951h-240.722v396.682c0,11.333-4.555,16.951-13.562,16.951H4949.732z M4590.345,2058.645
				h345.826v-739.114L4590.345,2058.645z"/><path fill="#fff" d="M2378.381,3675.416c-86.036-18.452-166.706-60.672-232.278-123.858
						c-120.976-116.569-173.29-281.682-143.531-453.004c24.733-142.368,90.979-250.808,196.901-322.305
						c203.892-137.626,479.729-80.542,491.372-78.045c45.118,9.678,73.849,54.101,64.171,99.219
						c-9.668,45.073-54.006,73.791-99.077,64.202c-4.761-0.973-220.191-43.785-363.582,53.542
						c-67.373,45.729-108.309,115.07-125.144,211.987c-20.111,115.783,14.456,226.613,94.838,304.07
						c75.881,73.115,177.988,102.614,280.174,80.938c136.047-28.87,191.6-112.845,250.412-201.752
						c66.581-100.644,149.438-225.898,348.475-199.751c45.769,6.012,77.971,47.972,71.959,93.725s-47.972,77.97-93.725,71.959
						c-91.846-12.067-122.017,27.523-187.336,126.265c-64.198,97.043-152.115,229.948-355.098,273.02
						C2510.479,3689.725,2442.915,3689.256,2378.381,3675.416z"/><path fill="#262525" d="M2478.137,3692.062c-33.757,0-67.503-3.593-101.014-10.78l0,0
						c-88.393-18.957-169.717-62.321-235.182-125.404c-122.433-117.973-175.385-285.035-145.28-458.352
						c25.023-144.039,92.129-253.806,199.456-326.25c205.979-139.034,484.242-81.458,495.987-78.938
						c23.388,5.017,43.423,18.841,56.414,38.927c12.991,20.086,17.382,44.029,12.365,67.418
						c-10.34,48.199-57.979,79.067-106.192,68.812c-0.507-0.104-56.189-11.301-128.445-9.962
						c-64.859,1.202-157.501,13.038-230.519,62.6c-65.957,44.769-106.06,112.822-122.602,208.05
						c-19.765,113.79,14.165,222.67,93.09,298.722c74.42,71.707,174.57,100.645,274.766,79.39
						c133.647-28.361,188.539-111.341,246.652-199.193c33.387-50.467,71.224-107.661,125.964-148.906
						c63.48-47.83,138.157-65.323,228.296-53.483c23.724,3.117,44.811,15.282,59.376,34.256
						c14.563,18.972,20.868,42.481,17.752,66.2c-5.915,45.018-44.497,77.894-88.729,77.896c-3.873,0.001-7.784-0.251-11.726-0.769
						c-43.312-5.69-72.979,0.41-99.196,20.401c-26.414,20.142-49.757,53.948-82.354,103.225
						c-64.774,97.913-153.478,231.998-358.857,275.579C2544.971,3688.54,2511.549,3692.062,2478.137,3692.062z M2379.639,3669.55
						c65.02,13.942,130.973,14.014,196.029,0.21c200.573-42.562,287.709-174.277,351.333-270.453
						c33.279-50.308,57.178-84.869,85.092-106.154c28.973-22.094,61.278-28.898,108.035-22.758
						c42.399,5.572,81.424-24.394,86.994-66.791c2.699-20.541-2.76-40.901-15.372-57.33c-12.613-16.431-30.875-26.966-51.42-29.665
						c-195.314-25.66-277.028,97.859-342.685,197.105c-59.512,89.966-115.72,174.937-254.174,204.317
						c-104.157,22.096-208.248-7.971-285.583-82.487c-81.84-78.86-117.044-191.638-96.587-309.416
						c17.128-98.604,58.894-169.233,127.686-215.926c33.343-22.631,73.249-39.6,118.609-50.434
						c36.261-8.661,76.105-13.45,118.427-14.234c73.583-1.364,128.804,9.74,131.118,10.213
						c41.798,8.889,83.055-17.839,92.008-59.582c4.345-20.254,0.542-40.988-10.708-58.383c-11.25-17.395-28.6-29.367-48.854-33.712
						c-11.542-2.475-284.964-59.058-486.757,77.151c-104.516,70.548-169.904,177.659-194.346,318.359
						c-29.413,169.327,22.265,332.491,141.783,447.656C2214.116,3608.763,2293.441,3651.06,2379.639,3669.55L2379.639,3669.55z"/><path fill="#fff" d="M3639.046,2870.016l-869.76,7.112c-199.554,0.768-361.947-160.38-362.715-359.934
							l-0.123-31.989c-1-259.84,208.831-471.293,468.672-472.293l140.335-0.54c330.471-1.272,599.402,265.597,600.674,596.068
							L3639.046,2870.016z"/><path fill="#262525" d="M2767.874,2883.132c-49.099,0-96.737-9.525-141.657-28.321
							c-43.812-18.333-83.197-44.667-117.06-78.27s-60.498-72.783-79.167-116.453c-19.33-45.216-29.228-93.284-29.419-142.87
							l-0.123-31.988c-0.248-64.322,12.111-126.771,36.733-185.614c23.781-56.833,57.94-107.921,101.529-151.847
							s94.413-78.478,151.061-102.695c58.651-25.073,121.004-37.912,185.326-38.16l140.335-0.54
							c0.797-0.003,1.605-0.005,2.402-0.005c80.744,0,159.125,15.672,233.031,46.597c72.086,30.163,136.887,73.491,192.603,128.779
							c55.716,55.289,99.542,119.755,130.259,191.606c31.771,74.315,48.055,153.319,48.401,234.816l22.896,261.325
							c0.146,1.667-0.411,3.32-1.537,4.559s-2.718,1.951-4.392,1.965l-869.759,7.113
							C2768.851,2883.131,2768.358,2883.132,2767.874,2883.132z M3017.822,2018.368c-0.781,0-1.562,0.002-2.344,0.005l-140.336,0.54
							c-124.067,0.478-240.523,49.241-327.915,137.308c-87.392,88.067-135.257,204.895-134.78,328.962l0.123,31.988
							c0.752,195.461,160.015,353.961,355.304,353.961c0.466,0,0.922-0.001,1.389-0.003l863.239-7.06l-22.351-255.104
							c-0.014-0.166-0.021-0.333-0.022-0.5c-0.608-158.229-62.799-306.749-175.113-418.202
							C3323.256,2079.36,3175.177,2018.368,3017.822,2018.368z"/><path fill="#262525" d="M3082.199,2877.413c-2.306,0-4.504-1.337-5.494-3.583l-16.491-37.433
						c-17.309-39.285-51.039-68.107-92.541-79.077l-46.362-12.255c-3.145-0.831-5.054-4.016-4.306-7.181
						c6.422-27.17,9.624-55.237,9.516-83.422c-0.752-195.464-160.017-353.967-355.309-353.967c-0.466,0-0.922,0.001-1.389,0.003
						c-0.007,0-0.016,0-0.023,0c-3.303,0-5.987-2.671-6-5.977c-0.013-3.314,2.663-6.011,5.977-6.023
						c49.55-0.212,97.73,9.337,143.094,28.319c43.813,18.333,83.198,44.667,117.062,78.271
						c33.863,33.603,60.499,72.784,79.168,116.455c19.331,45.217,29.229,93.286,29.419,142.872
						c0.104,27.163-2.767,54.225-8.539,80.529l40.757,10.773c45.052,11.908,81.667,43.195,100.456,85.841l16.492,37.433
						c1.336,3.032-0.04,6.574-3.072,7.91C3083.829,2877.248,3083.007,2877.412,3082.199,2877.413z"/><g><path fill="#fff" d="M3971.74,2898.638l-227.948,0.877c-4.96,0.019-8.996-3.986-9.015-8.946
						c-0.261-67.906,54.575-123.166,122.481-123.428c67.906-0.261,123.166,54.575,123.428,122.481
						C3980.706,2894.583,3976.7,2898.619,3971.74,2898.638z"/><path fill="#262525" d="M3743.756,2905.516c-8.232,0.001-14.946-6.682-14.979-14.923
						c-0.273-71.106,57.354-129.177,128.458-129.45c0.165-0.001,0.341-0.001,0.506-0.001c70.88,0,128.672,57.518,128.945,128.458
						c0.031,8.261-6.663,15.007-14.923,15.039l0,0l-227.947,0.877C3743.797,2905.516,3743.775,2905.516,3743.756,2905.516z
						 M3971.74,2898.639h0.01H3971.74z M3857.74,2773.142c-0.153,0-0.305,0-0.458,0.001
						c-64.489,0.248-116.753,52.915-116.505,117.403c0.007,1.64,1.342,2.97,2.98,2.97c0.004,0,0.008,0,0.012,0l227.947-0.877
						c1.644-0.007,2.976-1.35,2.97-2.993C3974.438,2825.311,3922.019,2773.142,3857.74,2773.142z"/><polygon fill="#fff" points="3981.481 2148.446 3918.276 2460.755 3627.857 2289.832"/><path fill="#262525" d="M3918.275,2466.755c-1.056,0-2.107-0.278-3.043-0.829l-290.418-170.924
							c-1.973-1.161-3.113-3.343-2.939-5.625c0.173-2.282,1.63-4.268,3.755-5.117l353.624-141.385
							c2.049-0.818,4.379-0.447,6.07,0.963c1.692,1.412,2.476,3.638,2.038,5.799l-63.206,312.309
							c-0.385,1.901-1.665,3.499-3.437,4.289C3919.939,2466.582,3919.106,2466.755,3918.275,2466.755z M3641.439,2290.862
							l272.625,160.452l59.334-293.175L3641.439,2290.862z"/><path fill="#fff" d="M3968.031,2524.292c9.288-176.255-112.145-337.105-290.369-372.133
							c-178.224-35.028-351.5,67.901-409.585,234.599c-0.022-0.038-62.523,163.516-160.897,199.36
							c0,0,130.406,236.833,431.504,273.176c288.215,64.035,519.081-146.602,519.081-146.602
							C3980.273,2642.282,3968.031,2524.292,3968.031,2524.292z"/><path fill="#262525" d="M3649.282,2876.099c-37.381,0-74.728-3.64-111.756-10.917
							c-72.289-14.208-140.148-37.528-201.693-69.315c-49.271-25.448-94.627-56.348-134.807-91.841
							c-68.552-60.558-97.881-112.807-99.096-115.001c-0.85-1.535-0.985-3.365-0.371-5.008c0.615-1.644,1.918-2.936,3.566-3.536
							c38.293-13.952,77.223-51.268,112.582-107.912c26.224-42.012,41.841-80.516,44.705-87.808c0.013-0.03,0.024-0.061,0.037-0.091
							c28.762-82.448,86.419-152.074,162.36-196.051c76.713-44.424,166.924-59.462,254.008-42.348
							c92.205,18.122,173.011,70.223,227.532,146.704c1.924,2.698,1.295,6.444-1.403,8.368c-2.698,1.923-6.444,1.295-8.368-1.403
							c-52.734-73.974-130.892-124.366-220.075-141.894c-172.008-33.808-345.156,65.367-402.762,230.686
							c-0.034,0.098-0.071,0.195-0.11,0.291l-0.049,0.125c-6.539,16.646-65.335,160.542-157.602,199.938
							c9.65,15.322,39.318,58.623,93.42,106.325c61.955,54.627,169.576,126.38,330.439,157.995
							c155.155,30.497,286.629-10.604,369.596-50.453c74.8-35.926,124.546-77.178,139.476-90.337
							c-37.971-36.716-59.383-84.43-70.767-118.633c-12.808-38.479-15.955-67.841-16.083-69.072c-0.032-0.31-0.04-0.622-0.024-0.933
							c2.864-54.726-7.287-110.218-29.356-160.479c-0.502-1.144-0.635-2.416-0.379-3.64l8.555-40.933
							c0.678-3.244,3.852-5.328,7.101-4.646c3.243,0.678,5.323,3.856,4.646,7.101l-8.163,39.061
							c22.216,51.345,32.448,107.884,29.607,163.666c0.442,3.783,3.963,31.563,15.577,66.366
							c11.404,34.175,33.184,82.349,72.175,117.776c1.231,1.119,1.943,2.699,1.964,4.363c0.021,1.664-0.648,3.263-1.852,4.413
							c-0.546,0.521-55.646,52.73-147.28,96.741c-53.816,25.848-109.592,43.913-165.776,53.693
							C3715.779,2873.221,3682.517,2876.099,3649.282,2876.099z"/><polygon fill="#fff" points="3317.871 2046.563 3275.529 2367.129 3273.842 2371.494 3591.684 2311.263"/><path fill="#262525" d="M3269.637,2388.376c-0.72,0-1.451-0.131-2.162-0.405c-3.091-1.194-4.628-4.669-3.434-7.76
							l5.634-14.577l42.247-319.856c0.297-2.247,1.833-4.135,3.973-4.88c2.142-0.749,4.517-0.223,6.146,1.352l161.003,155.644
							c2.383,2.303,2.447,6.102,0.144,8.483c-2.302,2.382-6.1,2.45-8.483,0.144l-152.443-147.368l-40.782,308.764
							c-0.062,0.471-0.181,0.934-0.352,1.377l-5.892,15.245C3274.314,2386.917,3272.043,2388.376,3269.637,2388.376z"/><path fill="#262525" d="M3328.19,2309.825c-1.104,0-2.223-0.305-3.223-0.944c-2.793-1.783-3.612-5.492-1.828-8.285
							c21.821-34.177,54.039-57.976,65.801-65.974l-56.48-122.948c-1.384-3.012-0.063-6.574,2.947-7.957
							c3.015-1.385,6.574-0.062,7.957,2.947l58.635,127.638c1.265,2.752,0.279,6.016-2.297,7.608
							c-0.408,0.253-41.416,25.937-66.449,65.143C3332.109,2308.846,3330.171,2309.825,3328.19,2309.825z"/><g><path fill="#262525" d="M3529.447,2521.935c-3.687,0-7.412-0.354-11.138-1.085
							c-24.652-4.845-43.369-24.831-46.574-49.733c-0.423-3.286,1.898-6.294,5.186-6.717c3.28-0.421,6.294,1.897,6.717,5.186
							c2.545,19.772,17.408,35.643,36.986,39.489c22.511,4.427,45.141-8.559,52.636-30.199c1.084-3.13,4.501-4.788,7.634-3.706
							c3.131,1.085,4.79,4.502,3.706,7.634C3576.398,2506.481,3553.817,2521.935,3529.447,2521.935z"/><path fill="#262525" d="M3801.677,2556.154c-3.771,0-7.563-0.366-11.34-1.108
							c-26.959-5.298-46.744-29.057-47.044-56.492c-0.036-3.313,2.621-6.029,5.935-6.065c0.022,0,0.045,0,0.066,0
							c3.283,0,5.963,2.644,5.999,5.935c0.237,21.779,15.949,40.641,37.358,44.848c24.45,4.806,48.716-11.064,54.101-35.376
							c0.718-3.234,3.918-5.274,7.156-4.561c3.235,0.717,5.276,3.921,4.561,7.156c-3.304,14.911-12.166,27.738-24.955,36.119
							C3823.921,2552.896,3812.912,2556.154,3801.677,2556.154z"/><path fill="#262525" d="M3675.997,2621.039l42.45-32.468c8.08-6.18,4.51-19.055-5.599-20.192l-75.732-8.512
									c-10.045-1.129-16.4,10.495-10.027,18.341l33.282,40.98C3664.222,2623.93,3671.145,2624.75,3675.997,2621.039z"/><path fill="#262525" d="M3669.119,2629.395c-5.019,0-9.975-2.198-13.406-6.424l-33.281-40.98
									c-4.446-5.474-5.133-13.009-1.75-19.196s10.097-9.667,17.104-8.89l75.731,8.512c7.054,0.794,12.836,5.726,14.732,12.564
									s-0.521,14.044-6.157,18.356l-42.45,32.468C3676.484,2628.221,3672.785,2629.395,3669.119,2629.395z M3635.769,2565.791
									c-2.816,0-4.187,2.08-4.558,2.76c-0.4,0.73-1.543,3.315,0.535,5.875l33.282,40.98c1.818,2.239,5.035,2.617,7.323,0.867l0,0
									l42.45-32.468c2.636-2.016,2.109-4.811,1.885-5.619c-0.224-0.808-1.212-3.475-4.51-3.845l-75.73-8.512
									C3636.212,2565.804,3635.985,2565.791,3635.769,2565.791z"/><path fill="#262525" d="M3660.549,2667.896c-0.384,0-0.773-0.037-1.164-0.113c-3.251-0.64-5.369-3.793-4.73-7.045
								l7.587-38.604c0.64-3.251,3.793-5.366,7.045-4.73c3.251,0.64,5.369,3.793,4.73,7.045l-7.587,38.604
								C3665.867,2665.912,3663.357,2667.896,3660.549,2667.896z"/><path fill="#262525" d="M3680.21,2684.1c-1.344,0-2.694-0.448-3.812-1.369l-17.074-14.066l-26.057,9.012
								c-3.134,1.077-6.548-0.578-7.632-3.71c-1.083-3.132,0.578-6.549,3.71-7.632l29.236-10.11c1.975-0.683,4.163-0.289,5.776,1.04
								l19.671,16.205c2.558,2.106,2.923,5.889,0.815,8.446C3683.657,2683.354,3681.94,2684.1,3680.21,2684.1z"/><path fill="#262525" d="M3825.226,2428.329l-52.528-5.904c-9.805-1.102-16.859-9.944-15.757-19.749
								s9.944-16.859,19.748-15.757l52.527,5.904c9.805,1.102,16.86,9.944,15.758,19.748S3835.031,2429.431,3825.226,2428.329z"/><path fill="#262525" d="M3827.269,2434.444c-0.9,0-1.806-0.051-2.714-0.152l-52.526-5.904
								c-6.335-0.712-12.013-3.849-15.988-8.831c-3.977-4.982-5.773-11.216-5.062-17.551c1.47-13.077,13.299-22.514,26.381-21.05
								l52.527,5.904c13.077,1.471,22.52,13.305,21.051,26.381c-0.713,6.336-3.85,12.014-8.832,15.989
								C3837.837,2432.637,3832.65,2434.444,3827.269,2434.444z M3774.686,2392.807c-5.954,0-11.102,4.486-11.781,10.54
								c-0.354,3.149,0.539,6.248,2.516,8.726s4.799,4.036,7.948,4.39l52.527,5.904c0,0,0,0,0.001,0
								c3.151,0.355,6.248-0.539,8.725-2.516c2.478-1.977,4.037-4.8,4.391-7.95c0.73-6.5-3.964-12.384-10.466-13.114l-52.526-5.904
								C3775.571,2392.831,3775.126,2392.807,3774.686,2392.807z"/><path fill="#262525" d="M3566.481,2399.246l-52.527-5.904c-9.805-1.102-16.86-9.944-15.758-19.748
								s9.944-16.86,19.748-15.758l52.527,5.904c9.805,1.102,16.86,9.944,15.758,19.748S3576.286,2400.348,3566.481,2399.246z"/><path fill="#262525" d="M3568.523,2405.361c-0.9,0-1.806-0.051-2.713-0.152l-52.527-5.903
								c-6.335-0.713-12.014-3.85-15.989-8.832s-5.772-11.216-5.061-17.551c1.469-13.077,13.304-22.513,26.381-21.05l52.527,5.904
								c13.076,1.471,22.52,13.306,21.051,26.382c-0.713,6.335-3.85,12.014-8.832,15.989
								C3579.092,2403.554,3573.904,2405.361,3568.523,2405.361z M3515.94,2363.724c-5.954,0-11.102,4.486-11.781,10.54
								c-0.731,6.502,3.963,12.386,10.465,13.116l52.526,5.903c0,0,0,0,0.001,0c3.151,0.355,6.248-0.539,8.725-2.516
								c2.478-1.977,4.037-4.8,4.391-7.949c0.73-6.501-3.964-12.385-10.466-13.115l-52.526-5.904
								C3516.826,2363.748,3516.381,2363.724,3515.94,2363.724z"/><g><path fill="#262525" d="M3544.062,2608.211c-0.417,0-0.84-0.043-1.265-0.135l-179.25-38.449
								c-3.239-0.694-5.303-3.885-4.607-7.125c0.694-3.239,3.881-5.307,7.125-4.607l179.25,38.449
								c3.239,0.694,5.303,3.885,4.607,7.125C3549.318,2606.284,3546.83,2608.211,3544.062,2608.211z"/><path fill="#262525" d="M3366.86,2655.978c-3.283,0-5.962-2.643-5.999-5.934c-0.036-3.313,2.62-6.029,5.934-6.066
								l173.468-1.916c3.308-0.039,6.029,2.62,6.066,5.934c0.036,3.313-2.62,6.029-5.934,6.066l-173.468,1.916
								C3366.905,2655.978,3366.883,2655.978,3366.86,2655.978z"/><path fill="#262525" d="M3891.568,2680.373c-0.142,0-0.285-0.005-0.429-0.015l-129.328-9.141
								c-3.306-0.234-5.796-3.103-5.562-6.408c0.233-3.305,3.091-5.781,6.408-5.562l129.328,9.141
								c3.306,0.234,5.796,3.103,5.562,6.408C3897.324,2677.957,3894.689,2680.373,3891.568,2680.373z"/><path fill="#262525" d="M3761.386,2625.239c-3.017,0-5.615-2.271-5.956-5.34c-0.365-3.294,2.009-6.26,5.303-6.625
								l132.064-14.642c3.293-0.357,6.26,2.01,6.625,5.303c0.365,3.294-2.009,6.26-5.303,6.625l-132.064,14.642
								C3761.83,2625.227,3761.607,2625.239,3761.386,2625.239z"/></g></g><g><path fill="#fff" d="M3517.685,2900.386l-227.948,0.877c-4.96,0.019-8.996-3.986-9.015-8.946
						c-0.261-67.906,54.575-123.166,122.481-123.427c67.906-0.261,123.166,54.575,123.428,122.481
						C3526.65,2896.331,3522.645,2900.367,3517.685,2900.386z"/><path fill="#262525" d="M3289.7,2907.263c-3.979,0-7.724-1.542-10.55-4.347c-2.84-2.818-4.413-6.574-4.428-10.576
						c-0.274-71.104,57.352-129.176,128.457-129.45c0.171-0.001,0.341-0.001,0.512-0.001c34.255,0,66.489,13.277,90.819,37.42
						c24.449,24.263,37.988,56.595,38.12,91.039c0.016,4.002-1.528,7.77-4.347,10.61c-2.818,2.84-6.574,4.412-10.575,4.428
						l-227.948,0.877C3289.74,2907.263,3289.72,2907.263,3289.7,2907.263z M3403.689,2774.889c-0.156,0-0.307,0-0.463,0.001
						c-64.489,0.248-116.753,52.916-116.504,117.404c0.004,1.075,0.554,1.779,0.881,2.104c0.325,0.323,1.03,0.864,2.098,0.864
						c0.004,0,0.008,0,0.013,0l227.948-0.877c0.001,0,0.001,0,0.001,0c1.073-0.004,1.778-0.554,2.104-0.881
						c0.324-0.327,0.868-1.036,0.864-2.11c-0.12-31.24-12.398-60.563-34.573-82.568
						C3463.994,2786.932,3434.755,2774.889,3403.689,2774.889z"/></g></g></svg>